<svg width="132" height="48" viewBox="0 0 132 48" fill="none" xmlns="http://www.w3.org/2000/svg">
<rect x="2" y="2" width="128" height="44" rx="22" fill="#FAF7EF" stroke="#100D23" stroke-width="4"/>
<path d="M105 33C105.538 33 105.99 32.8272 106.355 32.4816C106.718 32.1372 106.9 31.71 106.9 31.2V25.8H112.647C113.186 25.8 113.629 25.6272 113.978 25.2816C114.326 24.9372 114.5 24.51 114.5 24C114.5 23.49 114.318 23.0622 113.953 22.7166C113.589 22.3722 113.138 22.2 112.6 22.2H106.9V16.755C106.9 16.245 106.718 15.825 106.355 15.495C105.99 15.165 105.538 15 105 15C104.462 15 104.011 15.1722 103.647 15.5166C103.282 15.8622 103.1 16.29 103.1 16.8V22.2H97.3525C96.8142 22.2 96.3708 22.3722 96.0225 22.7166C95.6742 23.0622 95.5 23.49 95.5 24C95.5 24.51 95.6818 24.9372 96.0453 25.2816C96.4101 25.6272 96.8617 25.8 97.4 25.8H103.1V31.245C103.1 31.755 103.282 32.175 103.647 32.505C104.011 32.835 104.462 33 105 33V33ZM105 42C102.372 42 99.9017 41.5272 97.59 40.5816C95.2783 39.6372 93.2675 38.355 91.5575 36.735C89.8475 35.115 88.4941 33.21 87.4972 31.02C86.4991 28.83 86 26.49 86 24C86 21.51 86.4991 19.17 87.4972 16.98C88.4941 14.79 89.8475 12.885 91.5575 11.265C93.2675 9.645 95.2783 8.3622 97.59 7.4166C99.9017 6.4722 102.372 6 105 6C107.628 6 110.098 6.4722 112.41 7.4166C114.722 8.3622 116.733 9.645 118.443 11.265C120.153 12.885 121.506 14.79 122.503 16.98C123.501 19.17 124 21.51 124 24C124 26.49 123.501 28.83 122.503 31.02C121.506 33.21 120.153 35.115 118.443 36.735C116.733 38.355 114.722 39.6372 112.41 40.5816C110.098 41.5272 107.628 42 105 42Z" fill="#100D23"/>
<path d="M29.0588 20.7H25.5708V30.5H23.4188V20.7H19.9308V18.932H29.0588V20.7ZM32.8309 26.996C32.2602 27.0227 31.7802 27.0733 31.3909 27.148C31.0015 27.2173 30.6895 27.308 30.4549 27.42C30.2202 27.532 30.0522 27.6627 29.9509 27.812C29.8495 27.9613 29.7989 28.124 29.7989 28.3C29.7989 28.6467 29.9002 28.8947 30.1029 29.044C30.3109 29.1933 30.5802 29.268 30.9109 29.268C31.3162 29.268 31.6655 29.196 31.9589 29.052C32.2575 28.9027 32.5482 28.6787 32.8309 28.38V26.996ZM28.3029 23.436C29.2469 22.572 30.3829 22.14 31.7109 22.14C32.1909 22.14 32.6202 22.22 32.9989 22.38C33.3775 22.5347 33.6975 22.7533 33.9589 23.036C34.2202 23.3133 34.4175 23.6467 34.5509 24.036C34.6895 24.4253 34.7589 24.852 34.7589 25.316V30.5H33.8629C33.6762 30.5 33.5322 30.4733 33.4309 30.42C33.3295 30.3613 33.2495 30.2467 33.1909 30.076L33.0149 29.484C32.8069 29.6707 32.6042 29.836 32.4069 29.98C32.2095 30.1187 32.0042 30.236 31.7909 30.332C31.5775 30.428 31.3482 30.5 31.1029 30.548C30.8629 30.6013 30.5962 30.628 30.3029 30.628C29.9562 30.628 29.6362 30.5827 29.3429 30.492C29.0495 30.396 28.7962 30.2547 28.5829 30.068C28.3695 29.8813 28.2042 29.6493 28.0869 29.372C27.9695 29.0947 27.9109 28.772 27.9109 28.404C27.9109 28.196 27.9455 27.9907 28.0149 27.788C28.0842 27.58 28.1962 27.3827 28.3509 27.196C28.5109 27.0093 28.7162 26.8333 28.9669 26.668C29.2175 26.5027 29.5242 26.3587 29.8869 26.236C30.2549 26.1133 30.6815 26.0147 31.1669 25.94C31.6522 25.86 32.2069 25.812 32.8309 25.796V25.316C32.8309 24.7667 32.7135 24.3613 32.4789 24.1C32.2442 23.8333 31.9055 23.7 31.4629 23.7C31.1429 23.7 30.8762 23.7373 30.6629 23.812C30.4549 23.8867 30.2709 23.972 30.1109 24.068C29.9509 24.1587 29.8042 24.2413 29.6709 24.316C29.5429 24.3907 29.3989 24.428 29.2389 24.428C29.1002 24.428 28.9829 24.3933 28.8869 24.324C28.7909 24.2493 28.7135 24.164 28.6549 24.068L28.3029 23.436ZM36.6199 30.5V22.292H37.8279C38.0839 22.292 38.2519 22.412 38.3319 22.652L38.4599 23.26C38.6039 23.1 38.7532 22.9533 38.9079 22.82C39.0679 22.6867 39.2359 22.572 39.4119 22.476C39.5932 22.38 39.7852 22.3053 39.9879 22.252C40.1959 22.1933 40.4225 22.164 40.6679 22.164C41.1852 22.164 41.6092 22.3053 41.9399 22.588C42.2759 22.8653 42.5265 23.236 42.6919 23.7C42.8199 23.428 42.9799 23.196 43.1719 23.004C43.3639 22.8067 43.5745 22.6467 43.8039 22.524C44.0332 22.4013 44.2759 22.3107 44.5319 22.252C44.7932 22.1933 45.0545 22.164 45.3159 22.164C45.7692 22.164 46.1719 22.2333 46.5239 22.372C46.8759 22.5107 47.1719 22.7133 47.4119 22.98C47.6519 23.2467 47.8332 23.572 47.9559 23.956C48.0839 24.34 48.1479 24.78 48.1479 25.276V30.5H46.1719V25.276C46.1719 24.7533 46.0572 24.3613 45.8279 24.1C45.5985 23.8333 45.2625 23.7 44.8199 23.7C44.6172 23.7 44.4279 23.7347 44.2519 23.804C44.0812 23.8733 43.9292 23.9747 43.7959 24.108C43.6679 24.236 43.5665 24.3987 43.4919 24.596C43.4172 24.7933 43.3799 25.02 43.3799 25.276V30.5H41.3959V25.276C41.3959 24.7267 41.2839 24.3267 41.0599 24.076C40.8412 23.8253 40.5185 23.7 40.0919 23.7C39.8039 23.7 39.5345 23.772 39.2839 23.916C39.0385 24.0547 38.8092 24.2467 38.5959 24.492V30.5H36.6199ZM52.0021 28.372C52.2261 28.644 52.4688 28.836 52.7301 28.948C52.9968 29.06 53.2768 29.116 53.5701 29.116C53.8741 29.116 54.1461 29.0627 54.3861 28.956C54.6315 28.844 54.8395 28.6733 55.0101 28.444C55.1808 28.2093 55.3115 27.9133 55.4021 27.556C55.4928 27.1933 55.5381 26.7613 55.5381 26.26C55.5381 25.3587 55.3888 24.708 55.0901 24.308C54.7915 23.9027 54.3621 23.7 53.8021 23.7C53.4235 23.7 53.0928 23.788 52.8101 23.964C52.5275 24.1347 52.2581 24.3773 52.0021 24.692V28.372ZM52.0021 23.3C52.3328 22.9533 52.6981 22.6787 53.0981 22.476C53.5035 22.268 53.9648 22.164 54.4821 22.164C54.9568 22.164 55.3835 22.2573 55.7621 22.444C56.1461 22.6307 56.4715 22.9 56.7381 23.252C57.0101 23.5987 57.2181 24.02 57.3621 24.516C57.5061 25.012 57.5781 25.5693 57.5781 26.188C57.5781 26.8547 57.4955 27.46 57.3301 28.004C57.1648 28.548 56.9275 29.0147 56.6181 29.404C56.3141 29.788 55.9461 30.0867 55.5141 30.3C55.0821 30.5133 54.6021 30.62 54.0741 30.62C53.8181 30.62 53.5861 30.5933 53.3781 30.54C53.1701 30.492 52.9781 30.4227 52.8021 30.332C52.6261 30.2413 52.4635 30.132 52.3141 30.004C52.1701 29.8707 52.0315 29.724 51.8981 29.564L51.8101 30.116C51.7781 30.2547 51.7221 30.3533 51.6421 30.412C51.5675 30.4707 51.4635 30.5 51.3301 30.5H50.0261V18.612H52.0021V23.3ZM63.4403 26.996C62.8696 27.0227 62.3896 27.0733 62.0003 27.148C61.6109 27.2173 61.2989 27.308 61.0643 27.42C60.8296 27.532 60.6616 27.6627 60.5603 27.812C60.4589 27.9613 60.4083 28.124 60.4083 28.3C60.4083 28.6467 60.5096 28.8947 60.7123 29.044C60.9203 29.1933 61.1896 29.268 61.5203 29.268C61.9256 29.268 62.2749 29.196 62.5683 29.052C62.8669 28.9027 63.1576 28.6787 63.4403 28.38V26.996ZM58.9123 23.436C59.8563 22.572 60.9923 22.14 62.3203 22.14C62.8003 22.14 63.2296 22.22 63.6083 22.38C63.9869 22.5347 64.3069 22.7533 64.5683 23.036C64.8296 23.3133 65.0269 23.6467 65.1603 24.036C65.2989 24.4253 65.3683 24.852 65.3683 25.316V30.5H64.4723C64.2856 30.5 64.1416 30.4733 64.0403 30.42C63.9389 30.3613 63.8589 30.2467 63.8003 30.076L63.6243 29.484C63.4163 29.6707 63.2136 29.836 63.0163 29.98C62.8189 30.1187 62.6136 30.236 62.4003 30.332C62.1869 30.428 61.9576 30.5 61.7123 30.548C61.4723 30.6013 61.2056 30.628 60.9123 30.628C60.5656 30.628 60.2456 30.5827 59.9523 30.492C59.6589 30.396 59.4056 30.2547 59.1923 30.068C58.9789 29.8813 58.8136 29.6493 58.6963 29.372C58.5789 29.0947 58.5203 28.772 58.5203 28.404C58.5203 28.196 58.5549 27.9907 58.6243 27.788C58.6936 27.58 58.8056 27.3827 58.9603 27.196C59.1203 27.0093 59.3256 26.8333 59.5763 26.668C59.8269 26.5027 60.1336 26.3587 60.4963 26.236C60.8643 26.1133 61.2909 26.0147 61.7763 25.94C62.2616 25.86 62.8163 25.812 63.4403 25.796V25.316C63.4403 24.7667 63.3229 24.3613 63.0883 24.1C62.8536 23.8333 62.5149 23.7 62.0723 23.7C61.7523 23.7 61.4856 23.7373 61.2723 23.812C61.0643 23.8867 60.8803 23.972 60.7203 24.068C60.5603 24.1587 60.4136 24.2413 60.2803 24.316C60.1523 24.3907 60.0083 24.428 59.8483 24.428C59.7096 24.428 59.5923 24.3933 59.4963 24.324C59.4003 24.2493 59.3229 24.164 59.2643 24.068L58.9123 23.436ZM69.2053 23.172C69.5253 22.8733 69.8773 22.6307 70.2613 22.444C70.6453 22.2573 71.0959 22.164 71.6133 22.164C72.0613 22.164 72.4586 22.2413 72.8053 22.396C73.1519 22.5453 73.4399 22.7587 73.6693 23.036C73.9039 23.308 74.0799 23.636 74.1973 24.02C74.3199 24.3987 74.3813 24.8173 74.3813 25.276V30.5H72.4053V25.276C72.4053 24.7747 72.2906 24.388 72.0613 24.116C71.8319 23.8387 71.4826 23.7 71.0133 23.7C70.6719 23.7 70.3519 23.7773 70.0533 23.932C69.7546 24.0867 69.4719 24.2973 69.2053 24.564V30.5H67.2293V18.612H69.2053V23.172Z" fill="#100D23"/>
</svg>
