<svg width="24" height="24" viewBox="0 0 24 24" fill="none" xmlns="http://www.w3.org/2000/svg">
<path d="M23.2352 10.95H21.4952V20.475H2.50516V4.92H12.0002V3H2.50516C2.26281 3.0076 2.02443 3.06369 1.80411 3.16495C1.58379 3.26621 1.38599 3.41059 1.2224 3.58956C1.05881 3.76854 0.932732 3.97848 0.851624 4.20699C0.770515 4.43549 0.736015 4.67794 0.750162 4.92V20.475C0.742151 20.7134 0.781205 20.951 0.865089 21.1743C0.948974 21.3976 1.07604 21.6021 1.23904 21.7763C1.40203 21.9504 1.59775 22.0907 1.815 22.1891C2.03225 22.2876 2.26677 22.3422 2.50516 22.35H21.4952C21.7336 22.3422 21.9681 22.2876 22.1853 22.1891C22.4026 22.0907 22.5983 21.9504 22.7613 21.7763C22.9243 21.6021 23.0513 21.3976 23.1352 21.1743C23.2191 20.951 23.2582 20.7134 23.2502 20.475L23.2352 10.95Z" fill="#100D23"/>
<path d="M15.8402 4.305L9.33024 10.83L8.67024 11.49L8.55024 11.61L6.27024 16.35C6.11726 16.6543 6.0641 16.9991 6.1183 17.3354C6.1725 17.6716 6.3313 17.9822 6.57214 18.2231C6.81299 18.4639 7.12361 18.6227 7.45987 18.6769C7.79613 18.7311 8.14092 18.678 8.44524 18.525L13.1552 16.23L13.9502 15.435L14.5952 14.79L21.1052 8.25L21.7802 7.59L22.1552 7.215C22.7671 6.60194 23.1108 5.77116 23.1108 4.905C23.1108 4.03884 22.7671 3.20806 22.1552 2.595C21.5451 1.98926 20.72 1.64953 19.8602 1.65C18.9959 1.64883 18.1659 1.98836 17.5502 2.595L16.5002 3.63L15.8252 4.29L15.8402 4.305ZM8.26524 16.5L10.0352 12.855L11.9102 14.745L8.26524 16.5ZM11.2652 11.46L17.1152 5.595L19.0652 7.56L13.2752 13.5L11.2652 11.46ZM19.7852 3.495C19.9665 3.49438 20.1461 3.52988 20.3135 3.59942C20.4809 3.66895 20.6328 3.77113 20.7602 3.9C21.0195 4.16129 21.1649 4.51443 21.1649 4.8825C21.1649 5.25056 21.0195 5.60371 20.7602 5.865L20.3852 6.225L18.4352 4.275L18.8102 3.9C18.9456 3.76669 19.1082 3.66417 19.2868 3.59945C19.4654 3.53473 19.6559 3.50934 19.8452 3.525L19.7852 3.495Z" fill="#100D23"/>
</svg>
