<svg width="48" height="48" viewBox="0 0 48 48" fill="none" xmlns="http://www.w3.org/2000/svg">
<path d="M22.65 30.65C23.0167 31.0167 23.4753 31.1913 24.026 31.174C24.5753 31.158 25.0333 30.9667 25.4 30.6C25.7667 30.2333 25.95 29.7667 25.95 29.2C25.95 28.6333 25.7667 28.1667 25.4 27.8L23.6 26H30.05C30.6167 26 31.0833 25.808 31.45 25.424C31.8167 25.0413 32 24.5667 32 24C32 23.4333 31.8087 22.958 31.426 22.574C31.042 22.1913 30.5667 22 30 22H23.6L25.45 20.15C25.8167 19.7833 25.992 19.3247 25.976 18.774C25.9587 18.2247 25.7667 17.7667 25.4 17.4C25.0333 17.0333 24.5667 16.85 24 16.85C23.4333 16.85 22.9667 17.0333 22.6 17.4L17.4 22.6C17.0333 22.9667 16.85 23.4333 16.85 24C16.85 24.5667 17.0333 25.0333 17.4 25.4L22.65 30.65ZM24 44C21.2333 44 18.6333 43.4747 16.2 42.424C13.7667 41.3747 11.65 39.95 9.85 38.15C8.05 36.35 6.62533 34.2333 5.576 31.8C4.52533 29.3667 4 26.7667 4 24C4 21.2333 4.52533 18.6333 5.576 16.2C6.62533 13.7667 8.05 11.65 9.85 9.85C11.65 8.05 13.7667 6.62467 16.2 5.574C18.6333 4.52467 21.2333 4 24 4C26.7667 4 29.3667 4.52467 31.8 5.574C34.2333 6.62467 36.35 8.05 38.15 9.85C39.95 11.65 41.3747 13.7667 42.424 16.2C43.4747 18.6333 44 21.2333 44 24C44 26.7667 43.4747 29.3667 42.424 31.8C41.3747 34.2333 39.95 36.35 38.15 38.15C36.35 39.95 34.2333 41.3747 31.8 42.424C29.3667 43.4747 26.7667 44 24 44Z" fill="#2A29E6"/>
</svg>
