<svg width="48" height="48" viewBox="0 0 48 48" fill="none" xmlns="http://www.w3.org/2000/svg">
<path d="M19 18.65V29.35C19 30.15 19.35 30.7333 20.05 31.1C20.75 31.4667 21.4333 31.4333 22.1 31L30.4 25.7C31.0333 25.3333 31.35 24.7667 31.35 24C31.35 23.2333 31.0333 22.6667 30.4 22.3L22.1 17C21.4333 16.5667 20.75 16.5333 20.05 16.9C19.35 17.2667 19 17.85 19 18.65ZM24 44C21.2333 44 18.6333 43.4747 16.2 42.424C13.7667 41.3747 11.65 39.95 9.85 38.15C8.05 36.35 6.62533 34.2333 5.576 31.8C4.52533 29.3667 4 26.7667 4 24C4 21.2333 4.52533 18.6333 5.576 16.2C6.62533 13.7667 8.05 11.65 9.85 9.85C11.65 8.05 13.7667 6.62467 16.2 5.574C18.6333 4.52467 21.2333 4 24 4C26.7667 4 29.3667 4.52467 31.8 5.574C34.2333 6.62467 36.35 8.05 38.15 9.85C39.95 11.65 41.3747 13.7667 42.424 16.2C43.4747 18.6333 44 21.2333 44 24C44 26.7667 43.4747 29.3667 42.424 31.8C41.3747 34.2333 39.95 36.35 38.15 38.15C36.35 39.95 34.2333 41.3747 31.8 42.424C29.3667 43.4747 26.7667 44 24 44ZM24 40C28.4333 40 32.2087 38.442 35.326 35.326C38.442 32.2087 40 28.4333 40 24C40 19.5667 38.442 15.7913 35.326 12.674C32.2087 9.558 28.4333 8 24 8C19.5667 8 15.792 9.558 12.676 12.674C9.55867 15.7913 8 19.5667 8 24C8 28.4333 9.55867 32.2087 12.676 35.326C15.792 38.442 19.5667 40 24 40Z" fill="#FAF7EF"/>
</svg>
