<svg width="132" height="25" viewBox="0 0 132 25" fill="none" xmlns="http://www.w3.org/2000/svg">
<g clip-path="url(#clip0_25_245)">
<path d="M0.256012 24V7.79195H1.96801C2.37334 7.79195 2.62401 7.98928 2.72001 8.38395L2.92801 10.048C3.52534 9.31195 4.19734 8.70928 4.94401 8.23995C5.69068 7.77062 6.55468 7.53595 7.53601 7.53595C8.62401 7.53595 9.50401 7.83995 10.176 8.44795C10.8587 9.05595 11.3493 9.87728 11.648 10.912C11.8827 10.3253 12.1813 9.81862 12.544 9.39195C12.9173 8.96528 13.3333 8.61328 13.792 8.33595C14.2507 8.05862 14.736 7.85595 15.248 7.72795C15.7707 7.59995 16.2987 7.53595 16.832 7.53595C17.6853 7.53595 18.4427 7.67462 19.104 7.95195C19.776 8.21862 20.3413 8.61328 20.8 9.13595C21.2693 9.65862 21.6267 10.304 21.872 11.072C22.1173 11.8293 22.24 12.6987 22.24 13.68V24H19.376V13.68C19.376 12.4107 19.0987 11.4507 18.544 10.8C17.9893 10.1387 17.1893 9.80795 16.144 9.80795C15.6747 9.80795 15.2267 9.89328 14.8 10.064C14.384 10.224 14.016 10.464 13.696 10.784C13.376 11.104 13.12 11.5093 12.928 12C12.7467 12.48 12.656 13.04 12.656 13.68V24H9.79201V13.68C9.79201 12.3787 9.53068 11.408 9.00801 10.768C8.48534 10.128 7.72268 9.80795 6.72001 9.80795C6.01601 9.80795 5.36534 9.99995 4.76801 10.384C4.17068 10.7573 3.62134 11.2693 3.12001 11.92V24H0.256012ZM37.4165 14.128C37.4165 13.4667 37.3205 12.864 37.1285 12.32C36.9472 11.7653 36.6752 11.2907 36.3125 10.896C35.9605 10.4907 35.5285 10.1813 35.0165 9.96795C34.5045 9.74395 33.9232 9.63195 33.2725 9.63195C31.9072 9.63195 30.8245 10.032 30.0245 10.832C29.2352 11.6213 28.7445 12.72 28.5525 14.128H37.4165ZM39.7205 21.728C39.3685 22.1547 38.9472 22.528 38.4565 22.848C37.9658 23.1573 37.4378 23.4133 36.8725 23.616C36.3178 23.8187 35.7418 23.968 35.1445 24.064C34.5472 24.1707 33.9552 24.224 33.3685 24.224C32.2485 24.224 31.2138 24.0373 30.2645 23.664C29.3258 23.28 28.5098 22.7253 27.8165 22C27.1338 21.264 26.6005 20.3573 26.2165 19.28C25.8325 18.2027 25.6405 16.9653 25.6405 15.568C25.6405 14.4373 25.8112 13.3813 26.1525 12.4C26.5045 11.4187 27.0058 10.5707 27.6565 9.85595C28.3072 9.13062 29.1018 8.56528 30.0405 8.15995C30.9792 7.74395 32.0352 7.53595 33.2085 7.53595C34.1792 7.53595 35.0752 7.70128 35.8965 8.03195C36.7285 8.35195 37.4432 8.82128 38.0405 9.43995C38.6485 10.048 39.1232 10.8053 39.4645 11.712C39.8058 12.608 39.9765 13.632 39.9765 14.784C39.9765 15.232 39.9285 15.5307 39.8325 15.68C39.7365 15.8293 39.5552 15.904 39.2885 15.904H28.4565C28.4885 16.928 28.6272 17.8187 28.8725 18.576C29.1285 19.3333 29.4805 19.968 29.9285 20.48C30.3765 20.9813 30.9098 21.36 31.5285 21.616C32.1472 21.8613 32.8405 21.984 33.6085 21.984C34.3232 21.984 34.9365 21.904 35.4485 21.744C35.9712 21.5733 36.4192 21.392 36.7925 21.2C37.1658 21.008 37.4752 20.832 37.7205 20.672C37.9765 20.5013 38.1952 20.416 38.3765 20.416C38.6112 20.416 38.7925 20.5067 38.9205 20.688L39.7205 21.728ZM46.1628 10.144C46.5148 9.74928 46.8881 9.39195 47.2828 9.07195C47.6774 8.75195 48.0934 8.47995 48.5308 8.25595C48.9788 8.02128 49.4481 7.84528 49.9388 7.72795C50.4401 7.59995 50.9788 7.53595 51.5548 7.53595C52.4401 7.53595 53.2188 7.68528 53.8908 7.98395C54.5734 8.27195 55.1388 8.68795 55.5868 9.23195C56.0454 9.76528 56.3921 10.4107 56.6268 11.168C56.8614 11.9253 56.9788 12.7627 56.9788 13.68V24H54.1148V13.68C54.1148 12.4533 53.8321 11.504 53.2668 10.832C52.7121 10.1493 51.8641 9.80795 50.7228 9.80795C49.8801 9.80795 49.0908 10.0107 48.3548 10.416C47.6294 10.8213 46.9574 11.3707 46.3388 12.064V24H43.4748V7.79195H45.1868C45.5921 7.79195 45.8428 7.98928 45.9388 8.38395L46.1628 10.144ZM66.0758 24.256C64.7958 24.256 63.8091 23.8987 63.1158 23.184C62.4331 22.4693 62.0918 21.44 62.0918 20.096V10.176H60.1398C59.9691 10.176 59.8251 10.128 59.7078 10.032C59.5904 9.92528 59.5318 9.76528 59.5318 9.55195V8.41595L62.1878 8.07995L62.8438 3.07195C62.8758 2.91195 62.9451 2.78395 63.0518 2.68795C63.1691 2.58128 63.3184 2.52795 63.4998 2.52795H64.9398V8.11195H69.6278V10.176H64.9398V19.904C64.9398 20.5867 65.1051 21.0933 65.4358 21.424C65.7664 21.7547 66.1931 21.92 66.7158 21.92C67.0144 21.92 67.2704 21.8827 67.4838 21.808C67.7078 21.7227 67.8998 21.632 68.0598 21.536C68.2198 21.44 68.3531 21.3547 68.4598 21.28C68.5771 21.1947 68.6784 21.152 68.7638 21.152C68.9131 21.152 69.0464 21.2427 69.1638 21.424L69.9958 22.784C69.5051 23.2427 68.9131 23.6053 68.2198 23.872C67.5264 24.128 66.8118 24.256 66.0758 24.256ZM79.3068 7.53595C80.4908 7.53595 81.5574 7.73328 82.5068 8.12795C83.4561 8.52262 84.2668 9.08262 84.9388 9.80795C85.6108 10.5333 86.1228 11.4133 86.4748 12.448C86.8374 13.472 87.0188 14.6187 87.0188 15.888C87.0188 17.168 86.8374 18.32 86.4748 19.344C86.1228 20.368 85.6108 21.2427 84.9388 21.968C84.2668 22.6933 83.4561 23.2533 82.5068 23.648C81.5574 24.032 80.4908 24.224 79.3068 24.224C78.1121 24.224 77.0348 24.032 76.0748 23.648C75.1254 23.2533 74.3148 22.6933 73.6428 21.968C72.9708 21.2427 72.4534 20.368 72.0908 19.344C71.7388 18.32 71.5628 17.168 71.5628 15.888C71.5628 14.6187 71.7388 13.472 72.0908 12.448C72.4534 11.4133 72.9708 10.5333 73.6428 9.80795C74.3148 9.08262 75.1254 8.52262 76.0748 8.12795C77.0348 7.73328 78.1121 7.53595 79.3068 7.53595ZM79.3068 22C80.9068 22 82.1014 21.4667 82.8908 20.4C83.6801 19.3227 84.0748 17.824 84.0748 15.904C84.0748 13.9733 83.6801 12.4693 82.8908 11.392C82.1014 10.3147 80.9068 9.77595 79.3068 9.77595C78.4961 9.77595 77.7868 9.91462 77.1788 10.192C76.5814 10.4693 76.0801 10.8693 75.6748 11.392C75.2801 11.9147 74.9814 12.56 74.7788 13.328C74.5868 14.0853 74.4908 14.944 74.4908 15.904C74.4908 17.824 74.8854 19.3227 75.6748 20.4C76.4748 21.4667 77.6854 22 79.3068 22ZM93.335 11.04C93.847 9.93062 94.4763 9.06662 95.223 8.44795C95.9697 7.81862 96.8817 7.50395 97.959 7.50395C98.3003 7.50395 98.6257 7.54128 98.935 7.61595C99.255 7.69062 99.5377 7.80795 99.783 7.96795L99.575 10.096C99.511 10.3627 99.351 10.496 99.095 10.496C98.9457 10.496 98.727 10.464 98.439 10.4C98.151 10.336 97.8257 10.304 97.463 10.304C96.951 10.304 96.4923 10.3787 96.087 10.528C95.6923 10.6773 95.335 10.9013 95.015 11.2C94.7057 11.488 94.423 11.8507 94.167 12.288C93.9217 12.7147 93.6977 13.2053 93.495 13.76V24H90.631V7.79195H92.263C92.5723 7.79195 92.7857 7.85062 92.903 7.96795C93.0203 8.08528 93.1003 8.28795 93.143 8.57595L93.335 11.04Z" fill="#2A29E6"/>
<path d="M101.807 22.24C101.807 21.9627 101.855 21.7013 101.951 21.456C102.058 21.2107 102.197 20.9973 102.367 20.816C102.549 20.6347 102.762 20.4907 103.007 20.384C103.253 20.2773 103.514 20.224 103.791 20.224C104.069 20.224 104.33 20.2773 104.575 20.384C104.821 20.4907 105.034 20.6347 105.215 20.816C105.397 20.9973 105.541 21.2107 105.647 21.456C105.754 21.7013 105.807 21.9627 105.807 22.24C105.807 22.528 105.754 22.7947 105.647 23.04C105.541 23.2747 105.397 23.4827 105.215 23.664C105.034 23.8453 104.821 23.984 104.575 24.08C104.33 24.1867 104.069 24.24 103.791 24.24C103.514 24.24 103.253 24.1867 103.007 24.08C102.762 23.984 102.549 23.8453 102.367 23.664C102.197 23.4827 102.058 23.2747 101.951 23.04C101.855 22.7947 101.807 22.528 101.807 22.24ZM112.858 7.79201V24H110.01V7.79201H112.858ZM113.466 2.70401C113.466 2.98134 113.407 3.24268 113.29 3.48801C113.183 3.72268 113.034 3.93601 112.842 4.12801C112.66 4.30934 112.442 4.45334 112.186 4.56001C111.94 4.66668 111.679 4.72001 111.402 4.72001C111.124 4.72001 110.863 4.66668 110.618 4.56001C110.383 4.45334 110.175 4.30934 109.994 4.12801C109.812 3.93601 109.668 3.72268 109.562 3.48801C109.455 3.24268 109.402 2.98134 109.402 2.70401C109.402 2.42667 109.455 2.16534 109.562 1.92001C109.668 1.66401 109.812 1.44534 109.994 1.26401C110.175 1.07201 110.383 0.922674 110.618 0.816006C110.863 0.70934 111.124 0.656006 111.402 0.656006C111.679 0.656006 111.94 0.70934 112.186 0.816006C112.442 0.922674 112.66 1.07201 112.842 1.26401C113.034 1.44534 113.183 1.66401 113.29 1.92001C113.407 2.16534 113.466 2.42667 113.466 2.70401ZM120.225 10.144C120.577 9.74934 120.951 9.39201 121.345 9.07201C121.74 8.75201 122.156 8.48001 122.593 8.25601C123.041 8.02134 123.511 7.84534 124.001 7.72801C124.503 7.60001 125.041 7.53601 125.617 7.53601C126.503 7.53601 127.281 7.68534 127.953 7.98401C128.636 8.27201 129.201 8.68801 129.649 9.23201C130.108 9.76534 130.455 10.4107 130.689 11.168C130.924 11.9253 131.041 12.7627 131.041 13.68V24H128.177V13.68C128.177 12.4533 127.895 11.504 127.329 10.832C126.775 10.1493 125.927 9.80801 124.785 9.80801C123.943 9.80801 123.153 10.0107 122.417 10.416C121.692 10.8213 121.02 11.3707 120.401 12.064V24H117.537V7.79201H119.249C119.655 7.79201 119.905 7.98934 120.001 8.38401L120.225 10.144Z" fill="#11093E"/>
</g>
<defs>
<clipPath id="clip0_25_245">
<rect width="132" height="25" fill="white"/>
</clipPath>
</defs>
</svg>
