<svg width="59" height="22" viewBox="0 0 59 22" fill="none" xmlns="http://www.w3.org/2000/svg">
<path d="M6.1875 2.75C5.27582 2.75 4.40148 3.11216 3.75682 3.75682C3.11216 4.40148 2.75 5.27582 2.75 6.1875V15.8098C2.75 16.511 2.959 17.1614 3.31925 17.7059L9.34587 11.6793C9.78423 11.241 10.3787 10.9947 10.9986 10.9947C11.6185 10.9947 12.213 11.241 12.6514 11.6793L13.1189 12.1467L15.9899 9.27713C16.4089 8.85738 16.9273 8.55041 17.4968 8.38478C18.0663 8.21914 18.6685 8.20021 19.2473 8.32975V6.1875C19.2473 5.27582 18.8851 4.40148 18.2404 3.75682C17.5958 3.11216 16.7214 2.75 15.8098 2.75H6.1875ZM15.8098 7.56387C15.8156 7.74837 15.7843 7.93217 15.7177 8.10433C15.6511 8.2765 15.5506 8.43353 15.4222 8.5661C15.2937 8.69867 15.1399 8.80408 14.97 8.87607C14.8 8.94805 14.6173 8.98514 14.4327 8.98514C14.2481 8.98514 14.0654 8.94805 13.8954 8.87607C13.7254 8.80408 13.5717 8.69867 13.4432 8.5661C13.3148 8.43353 13.2143 8.2765 13.1477 8.10433C13.0811 7.93217 13.0498 7.74837 13.0556 7.56387C13.0669 7.20619 13.217 6.86693 13.474 6.61791C13.731 6.36889 14.0748 6.22964 14.4327 6.22964C14.7906 6.22964 15.1344 6.36889 15.3914 6.61791C15.6484 6.86693 15.7984 7.20619 15.8098 7.56387V7.56387ZM18.2353 9.63462C17.7534 9.68908 17.3044 9.90583 16.962 10.2492L11.0688 16.1452C10.5796 16.6346 10.2326 17.2477 10.065 17.919L9.647 19.5827C9.61177 19.7233 9.61356 19.8706 9.6522 20.0103C9.69085 20.15 9.76502 20.2773 9.8675 20.3798C9.96998 20.4822 10.0973 20.5564 10.2369 20.595C10.3766 20.6337 10.5239 20.6355 10.6645 20.6003L12.3282 20.1836C12.9995 20.016 13.6127 19.669 14.102 19.1799L19.998 13.2839C20.3132 12.9693 20.5227 12.5644 20.5974 12.1254C20.6721 11.6863 20.6083 11.2349 20.4148 10.8338C20.2214 10.4327 19.9078 10.1017 19.5178 9.88684C19.1277 9.67195 18.6804 9.58381 18.238 9.63462H18.2353ZM12.1481 13.1189L10.0953 15.1718C9.42935 15.8374 8.95692 16.6715 8.7285 17.5849L8.31325 19.2473H6.1875C5.48625 19.2473 4.8345 19.0369 4.29138 18.678L10.318 12.65C10.4074 12.5606 10.5135 12.4897 10.6303 12.4413C10.7471 12.393 10.8722 12.3681 10.9986 12.3681C11.125 12.3681 11.2502 12.393 11.367 12.4413C11.4838 12.4897 11.5899 12.5606 11.6793 12.65L12.1467 13.1175L12.1481 13.1189Z" fill="#100D23"/>
<path d="M33.9402 7.144V10.352H37.9882V12.008H33.9402V15.28H39.0762V17H31.7802V5.432H39.0762V7.144H33.9402ZM45.5421 10.888C45.3181 10.616 45.0727 10.424 44.8061 10.312C44.5447 10.2 44.2621 10.144 43.9581 10.144C43.6594 10.144 43.3901 10.2 43.1501 10.312C42.9101 10.424 42.7047 10.5947 42.5341 10.824C42.3634 11.048 42.2327 11.336 42.1421 11.688C42.0514 12.0347 42.0061 12.4453 42.0061 12.92C42.0061 13.4 42.0434 13.808 42.1181 14.144C42.1981 14.4747 42.3101 14.7467 42.4541 14.96C42.5981 15.168 42.7741 15.32 42.9821 15.416C43.1901 15.5067 43.4221 15.552 43.6781 15.552C44.0887 15.552 44.4381 15.4667 44.7261 15.296C45.0141 15.1253 45.2861 14.8827 45.5421 14.568V10.888ZM47.5181 5.112V17H46.3101C46.0487 17 45.8834 16.88 45.8141 16.64L45.6461 15.848C45.3154 16.2267 44.9341 16.5333 44.5021 16.768C44.0754 17.0027 43.5767 17.12 43.0061 17.12C42.5581 17.12 42.1474 17.0267 41.7741 16.84C41.4007 16.6533 41.0781 16.384 40.8061 16.032C40.5394 15.6747 40.3314 15.2347 40.1821 14.712C40.0381 14.1893 39.9661 13.592 39.9661 12.92C39.9661 12.312 40.0487 11.7467 40.2141 11.224C40.3794 10.7013 40.6167 10.248 40.9261 9.864C41.2354 9.48 41.6061 9.18133 42.0381 8.968C42.4701 8.74933 42.9554 8.64 43.4941 8.64C43.9527 8.64 44.3447 8.712 44.6701 8.856C44.9954 9 45.2861 9.19467 45.5421 9.44V5.112H47.5181ZM51.5162 8.792V17H49.5322V8.792H51.5162ZM51.7882 6.4C51.7882 6.57067 51.7535 6.73067 51.6842 6.88C51.6149 7.02933 51.5215 7.16 51.4042 7.272C51.2922 7.384 51.1589 7.47467 51.0042 7.544C50.8495 7.608 50.6842 7.64 50.5082 7.64C50.3375 7.64 50.1749 7.608 50.0202 7.544C49.8709 7.47467 49.7402 7.384 49.6282 7.272C49.5162 7.16 49.4255 7.02933 49.3562 6.88C49.2922 6.73067 49.2602 6.57067 49.2602 6.4C49.2602 6.224 49.2922 6.05867 49.3562 5.904C49.4255 5.74933 49.5162 5.616 49.6282 5.504C49.7402 5.392 49.8709 5.304 50.0202 5.24C50.1749 5.17067 50.3375 5.136 50.5082 5.136C50.6842 5.136 50.8495 5.17067 51.0042 5.24C51.1589 5.304 51.2922 5.392 51.4042 5.504C51.5215 5.616 51.6149 5.74933 51.6842 5.904C51.7535 6.05867 51.7882 6.224 51.7882 6.4ZM56.2667 17.128C55.552 17.128 55.0027 16.928 54.6187 16.528C54.24 16.1227 54.0507 15.5653 54.0507 14.856V10.272H53.2107C53.104 10.272 53.0134 10.2373 52.9387 10.168C52.864 10.0987 52.8267 9.99467 52.8267 9.856V9.072L54.1467 8.856L54.5627 6.616C54.5894 6.50933 54.64 6.42667 54.7147 6.368C54.7894 6.30933 54.8854 6.28 55.0027 6.28H56.0267V8.864H58.2187V10.272H56.0267V14.72C56.0267 14.976 56.088 15.176 56.2107 15.32C56.3387 15.464 56.512 15.536 56.7307 15.536C56.8534 15.536 56.9547 15.5227 57.0347 15.496C57.12 15.464 57.192 15.432 57.2507 15.4C57.3147 15.368 57.3707 15.3387 57.4187 15.312C57.4667 15.28 57.5147 15.264 57.5627 15.264C57.6214 15.264 57.6694 15.28 57.7067 15.312C57.744 15.3387 57.784 15.3813 57.8267 15.44L58.4187 16.4C58.1307 16.64 57.8 16.8213 57.4267 16.944C57.0534 17.0667 56.6667 17.128 56.2667 17.128Z" fill="#100D23"/>
</svg>
