<svg width="135" height="25" viewBox="0 0 135 25" fill="none" xmlns="http://www.w3.org/2000/svg">
<path d="M0.952 24V7.584H3.368C3.88 7.584 4.216 7.824 4.376 8.304L4.632 9.52C4.92 9.2 5.21867 8.90667 5.528 8.64C5.848 8.37333 6.184 8.144 6.536 7.952C6.89867 7.76 7.28267 7.61067 7.688 7.504C8.104 7.38667 8.55733 7.328 9.048 7.328C10.0827 7.328 10.9307 7.61067 11.592 8.176C12.264 8.73067 12.7653 9.472 13.096 10.4C13.352 9.856 13.672 9.392 14.056 9.008C14.44 8.61333 14.8613 8.29333 15.32 8.048C15.7787 7.80267 16.264 7.62133 16.776 7.504C17.2987 7.38667 17.8213 7.328 18.344 7.328C19.2507 7.328 20.056 7.46667 20.76 7.744C21.464 8.02133 22.056 8.42667 22.536 8.96C23.016 9.49333 23.3787 10.144 23.624 10.912C23.88 11.68 24.008 12.56 24.008 13.552V24H20.056V13.552C20.056 12.5067 19.8267 11.7227 19.368 11.2C18.9093 10.6667 18.2373 10.4 17.352 10.4C16.9467 10.4 16.568 10.4693 16.216 10.608C15.8747 10.7467 15.5707 10.9493 15.304 11.216C15.048 11.472 14.8453 11.7973 14.696 12.192C14.5467 12.5867 14.472 13.04 14.472 13.552V24H10.504V13.552C10.504 12.4533 10.28 11.6533 9.832 11.152C9.39467 10.6507 8.74933 10.4 7.896 10.4C7.32 10.4 6.78133 10.544 6.28 10.832C5.78933 11.1093 5.33067 11.4933 4.904 11.984V24H0.952ZM38.3405 13.904C38.3405 13.392 38.2658 12.912 38.1165 12.464C37.9778 12.0053 37.7645 11.6053 37.4765 11.264C37.1885 10.9227 36.8205 10.656 36.3725 10.464C35.9352 10.2613 35.4232 10.16 34.8365 10.16C33.6952 10.16 32.7938 10.4853 32.1325 11.136C31.4818 11.7867 31.0658 12.7093 30.8845 13.904H38.3405ZM30.8045 16.288C30.8685 17.1307 31.0178 17.8613 31.2525 18.48C31.4872 19.088 31.7965 19.5947 32.1805 20C32.5645 20.3947 33.0178 20.6933 33.5405 20.896C34.0738 21.088 34.6605 21.184 35.3005 21.184C35.9405 21.184 36.4898 21.1093 36.9485 20.96C37.4178 20.8107 37.8232 20.6453 38.1645 20.464C38.5165 20.2827 38.8205 20.1173 39.0765 19.968C39.3432 19.8187 39.5992 19.744 39.8445 19.744C40.1752 19.744 40.4205 19.8667 40.5805 20.112L41.7165 21.552C41.2792 22.064 40.7885 22.496 40.2445 22.848C39.7005 23.1893 39.1298 23.4667 38.5325 23.68C37.9458 23.8827 37.3432 24.0267 36.7245 24.112C36.1165 24.1973 35.5245 24.24 34.9485 24.24C33.8072 24.24 32.7458 24.0533 31.7645 23.68C30.7832 23.296 29.9298 22.736 29.2045 22C28.4792 21.2533 27.9085 20.336 27.4925 19.248C27.0765 18.1493 26.8685 16.88 26.8685 15.44C26.8685 14.32 27.0498 13.2693 27.4125 12.288C27.7752 11.296 28.2925 10.4373 28.9645 9.712C29.6472 8.976 30.4738 8.39467 31.4445 7.968C32.4258 7.54133 33.5298 7.328 34.7565 7.328C35.7912 7.328 36.7458 7.49333 37.6205 7.824C38.4952 8.15467 39.2472 8.64 39.8765 9.28C40.5058 9.90933 40.9965 10.688 41.3485 11.616C41.7112 12.5333 41.8925 13.584 41.8925 14.768C41.8925 15.3653 41.8285 15.7707 41.7005 15.984C41.5725 16.1867 41.3272 16.288 40.9645 16.288H30.8045ZM48.5543 9.6C48.8849 9.26933 49.2316 8.96533 49.5943 8.688C49.9676 8.4 50.3569 8.16 50.7623 7.968C51.1783 7.76533 51.6209 7.61067 52.0903 7.504C52.5596 7.38667 53.0716 7.328 53.6263 7.328C54.5223 7.328 55.3169 7.48267 56.0103 7.792C56.7036 8.09067 57.2796 8.51733 57.7383 9.072C58.2076 9.616 58.5596 10.272 58.7943 11.04C59.0396 11.7973 59.1623 12.6347 59.1623 13.552V24H55.2103V13.552C55.2103 12.5493 54.9809 11.776 54.5223 11.232C54.0636 10.6773 53.3649 10.4 52.4263 10.4C51.7436 10.4 51.1036 10.5547 50.5063 10.864C49.9089 11.1733 49.3436 11.5947 48.8103 12.128V24H44.8583V7.584H47.2743C47.7863 7.584 48.1223 7.824 48.2823 8.304L48.5543 9.6ZM68.174 24.256C66.7447 24.256 65.646 23.856 64.878 23.056C64.1207 22.2453 63.742 21.1307 63.742 19.712V10.544H62.062C61.8487 10.544 61.6673 10.4747 61.518 10.336C61.3687 10.1973 61.294 9.98933 61.294 9.712V8.144L63.934 7.712L64.766 3.232C64.8193 3.01867 64.9207 2.85333 65.07 2.736C65.2193 2.61867 65.4113 2.56 65.646 2.56H67.694V7.728H72.078V10.544H67.694V19.44C67.694 19.952 67.8167 20.352 68.062 20.64C68.318 20.928 68.6647 21.072 69.102 21.072C69.3473 21.072 69.55 21.0453 69.71 20.992C69.8807 20.928 70.0247 20.864 70.142 20.8C70.27 20.736 70.382 20.6773 70.478 20.624C70.574 20.56 70.67 20.528 70.766 20.528C70.8833 20.528 70.9793 20.56 71.054 20.624C71.1287 20.6773 71.2087 20.7627 71.294 20.88L72.478 22.8C71.902 23.28 71.2407 23.6427 70.494 23.888C69.7473 24.1333 68.974 24.256 68.174 24.256ZM81.7473 7.328C82.9633 7.328 84.0673 7.52533 85.0593 7.92C86.0619 8.31467 86.9153 8.87467 87.6193 9.6C88.3339 10.3253 88.8832 11.2107 89.2673 12.256C89.6513 13.3013 89.8433 14.4693 89.8433 15.76C89.8433 17.0613 89.6513 18.2347 89.2673 19.28C88.8832 20.3253 88.3339 21.216 87.6193 21.952C86.9153 22.688 86.0619 23.2533 85.0593 23.648C84.0673 24.0427 82.9633 24.24 81.7473 24.24C80.5206 24.24 79.4059 24.0427 78.4033 23.648C77.4006 23.2533 76.5419 22.688 75.8273 21.952C75.1233 21.216 74.5739 20.3253 74.1793 19.28C73.7953 18.2347 73.6033 17.0613 73.6033 15.76C73.6033 14.4693 73.7953 13.3013 74.1793 12.256C74.5739 11.2107 75.1233 10.3253 75.8273 9.6C76.5419 8.87467 77.4006 8.31467 78.4033 7.92C79.4059 7.52533 80.5206 7.328 81.7473 7.328ZM81.7473 21.2C83.1126 21.2 84.1206 20.7413 84.7713 19.824C85.4326 18.9067 85.7633 17.5627 85.7633 15.792C85.7633 14.0213 85.4326 12.672 84.7713 11.744C84.1206 10.816 83.1126 10.352 81.7473 10.352C80.3606 10.352 79.3313 10.8213 78.6593 11.76C77.9979 12.688 77.6673 14.032 77.6673 15.792C77.6673 17.552 77.9979 18.896 78.6593 19.824C79.3313 20.7413 80.3606 21.2 81.7473 21.2ZM96.5863 10.432C97.0983 9.45067 97.7063 8.68267 98.4103 8.128C99.1143 7.56267 99.9463 7.28 100.906 7.28C101.664 7.28 102.272 7.44533 102.73 7.776L102.474 10.736C102.421 10.928 102.341 11.0667 102.234 11.152C102.138 11.2267 102.005 11.264 101.834 11.264C101.674 11.264 101.434 11.2373 101.114 11.184C100.805 11.1307 100.501 11.104 100.202 11.104C99.7649 11.104 99.3756 11.168 99.0343 11.296C98.6929 11.424 98.3836 11.6107 98.1063 11.856C97.8396 12.0907 97.5996 12.3787 97.3863 12.72C97.1836 13.0613 96.9916 13.4507 96.8103 13.888V24H92.8583V7.584H95.1783C95.5836 7.584 95.8663 7.65867 96.0263 7.808C96.1863 7.94667 96.2929 8.20267 96.3463 8.576L96.5863 10.432Z" fill="#2A29E6"/>
<path d="M104.22 21.824C104.22 21.4933 104.278 21.1787 104.396 20.88C104.524 20.5813 104.694 20.3253 104.908 20.112C105.121 19.8987 105.377 19.728 105.676 19.6C105.974 19.472 106.294 19.408 106.636 19.408C106.977 19.408 107.292 19.472 107.58 19.6C107.878 19.728 108.134 19.8987 108.348 20.112C108.572 20.3253 108.748 20.5813 108.876 20.88C109.004 21.1787 109.068 21.4933 109.068 21.824C109.068 22.1653 109.004 22.4853 108.876 22.784C108.748 23.072 108.572 23.3227 108.348 23.536C108.134 23.7493 107.878 23.9147 107.58 24.032C107.292 24.16 106.977 24.224 106.636 24.224C106.294 24.224 105.974 24.16 105.676 24.032C105.377 23.9147 105.121 23.7493 104.908 23.536C104.694 23.3227 104.524 23.072 104.396 22.784C104.278 22.4853 104.22 22.1653 104.22 21.824ZM116.486 7.584V24H112.518V7.584H116.486ZM117.03 2.8C117.03 3.14133 116.96 3.46133 116.822 3.76C116.683 4.05866 116.496 4.32 116.262 4.544C116.038 4.768 115.771 4.94933 115.462 5.088C115.152 5.216 114.822 5.28 114.47 5.28C114.128 5.28 113.803 5.216 113.494 5.088C113.195 4.94933 112.934 4.768 112.71 4.544C112.486 4.32 112.304 4.05866 112.166 3.76C112.038 3.46133 111.974 3.14133 111.974 2.8C111.974 2.448 112.038 2.11733 112.166 1.808C112.304 1.49867 112.486 1.232 112.71 1.008C112.934 0.783999 113.195 0.607999 113.494 0.48C113.803 0.341333 114.128 0.271999 114.47 0.271999C114.822 0.271999 115.152 0.341333 115.462 0.48C115.771 0.607999 116.038 0.783999 116.262 1.008C116.496 1.232 116.683 1.49867 116.822 1.808C116.96 2.11733 117.03 2.448 117.03 2.8ZM124.211 9.6C124.541 9.26933 124.888 8.96533 125.251 8.688C125.624 8.4 126.013 8.16 126.419 7.968C126.835 7.76533 127.277 7.61067 127.747 7.504C128.216 7.38667 128.728 7.328 129.283 7.328C130.179 7.328 130.973 7.48267 131.667 7.792C132.36 8.09067 132.936 8.51733 133.395 9.072C133.864 9.616 134.216 10.272 134.451 11.04C134.696 11.7973 134.819 12.6347 134.819 13.552V24H130.867V13.552C130.867 12.5493 130.637 11.776 130.179 11.232C129.72 10.6773 129.021 10.4 128.083 10.4C127.4 10.4 126.76 10.5547 126.163 10.864C125.565 11.1733 125 11.5947 124.467 12.128V24H120.515V7.584H122.931C123.443 7.584 123.779 7.824 123.939 8.304L124.211 9.6Z" fill="#FAF7EF"/>
</svg>
