<svg width="132" height="25" viewBox="0 0 132 25" fill="none" xmlns="http://www.w3.org/2000/svg">
<g clip-path="url(#clip0_46_196)">
<path d="M0.256104 24V7.79202H1.9681C2.37343 7.79202 2.6241 7.98935 2.7201 8.38402L2.9281 10.048C3.52543 9.31202 4.19743 8.70934 4.9441 8.24002C5.69077 7.77069 6.55477 7.53601 7.5361 7.53601C8.6241 7.53601 9.5041 7.84002 10.1761 8.44802C10.8588 9.05602 11.3494 9.87735 11.6481 10.912C11.8828 10.3253 12.1814 9.81869 12.5441 9.39202C12.9174 8.96535 13.3334 8.61335 13.7921 8.33602C14.2508 8.05869 14.7361 7.85601 15.2481 7.72801C15.7708 7.60002 16.2988 7.53601 16.8321 7.53601C17.6854 7.53601 18.4428 7.67469 19.1041 7.95201C19.7761 8.21869 20.3414 8.61335 20.8001 9.13601C21.2694 9.65868 21.6268 10.304 21.8721 11.072C22.1174 11.8293 22.2401 12.6987 22.2401 13.68V24H19.3761V13.68C19.3761 12.4107 19.0988 11.4507 18.5441 10.8C17.9894 10.1387 17.1894 9.80801 16.1441 9.80801C15.6748 9.80801 15.2268 9.89335 14.8001 10.064C14.3841 10.224 14.0161 10.464 13.6961 10.784C13.3761 11.104 13.1201 11.5093 12.9281 12C12.7468 12.48 12.6561 13.04 12.6561 13.68V24H9.7921V13.68C9.7921 12.3787 9.53077 11.408 9.0081 10.768C8.48543 10.128 7.72277 9.80801 6.7201 9.80801C6.0161 9.80801 5.36543 10 4.7681 10.384C4.17077 10.7573 3.62143 11.2693 3.1201 11.92V24H0.256104ZM37.4166 14.128C37.4166 13.4667 37.3206 12.864 37.1286 12.32C36.9473 11.7653 36.6753 11.2907 36.3126 10.896C35.9606 10.4907 35.5286 10.1813 35.0166 9.96802C34.5046 9.74402 33.9233 9.63202 33.2726 9.63202C31.9073 9.63202 30.8246 10.032 30.0246 10.832C29.2353 11.6213 28.7446 12.72 28.5526 14.128H37.4166ZM39.7206 21.728C39.3686 22.1547 38.9473 22.528 38.4566 22.848C37.9659 23.1573 37.4379 23.4133 36.8726 23.616C36.3179 23.8187 35.7419 23.968 35.1446 24.064C34.5473 24.1707 33.9553 24.224 33.3686 24.224C32.2486 24.224 31.2139 24.0373 30.2646 23.664C29.3259 23.28 28.5099 22.7253 27.8166 22C27.1339 21.264 26.6006 20.3573 26.2166 19.28C25.8326 18.2027 25.6406 16.9653 25.6406 15.568C25.6406 14.4373 25.8113 13.3813 26.1526 12.4C26.5046 11.4187 27.0059 10.5707 27.6566 9.85602C28.3073 9.13069 29.1019 8.56535 30.0406 8.16002C30.9793 7.74402 32.0353 7.53601 33.2086 7.53601C34.1793 7.53601 35.0753 7.70134 35.8966 8.03201C36.7286 8.35202 37.4433 8.82134 38.0406 9.44001C38.6486 10.048 39.1233 10.8053 39.4646 11.712C39.8059 12.608 39.9766 13.632 39.9766 14.784C39.9766 15.232 39.9286 15.5307 39.8326 15.68C39.7366 15.8293 39.5553 15.904 39.2886 15.904H28.4566C28.4886 16.928 28.6273 17.8187 28.8726 18.576C29.1286 19.3333 29.4806 19.968 29.9286 20.48C30.3766 20.9813 30.9099 21.36 31.5286 21.616C32.1473 21.8613 32.8406 21.984 33.6086 21.984C34.3233 21.984 34.9366 21.904 35.4486 21.744C35.9713 21.5733 36.4193 21.392 36.7926 21.2C37.1659 21.008 37.4753 20.832 37.7206 20.672C37.9766 20.5013 38.1953 20.416 38.3766 20.416C38.6113 20.416 38.7926 20.5067 38.9206 20.688L39.7206 21.728ZM46.1629 10.144C46.5149 9.74935 46.8882 9.39201 47.2829 9.07201C47.6775 8.75201 48.0935 8.48001 48.5309 8.25601C48.9789 8.02134 49.4482 7.84535 49.9389 7.72801C50.4402 7.60002 50.9789 7.53601 51.5549 7.53601C52.4402 7.53601 53.2189 7.68535 53.8909 7.98402C54.5735 8.27202 55.1389 8.68802 55.5869 9.23202C56.0455 9.76535 56.3922 10.4107 56.6269 11.168C56.8615 11.9253 56.9789 12.7627 56.9789 13.68V24H54.1149V13.68C54.1149 12.4533 53.8322 11.504 53.2669 10.832C52.7122 10.1493 51.8642 9.80801 50.7229 9.80801C49.8802 9.80801 49.0909 10.0107 48.3549 10.416C47.6295 10.8213 46.9575 11.3707 46.3389 12.064V24H43.4749V7.79202H45.1869C45.5922 7.79202 45.8429 7.98935 45.9389 8.38402L46.1629 10.144ZM66.0759 24.256C64.7959 24.256 63.8092 23.8987 63.1159 23.184C62.4332 22.4693 62.0919 21.44 62.0919 20.096V10.176H60.1399C59.9692 10.176 59.8252 10.128 59.7079 10.032C59.5905 9.92534 59.5319 9.76535 59.5319 9.55202V8.41602L62.1879 8.08002L62.8439 3.07202C62.8759 2.91202 62.9452 2.78401 63.0519 2.68801C63.1692 2.58134 63.3185 2.52802 63.4999 2.52802H64.9399V8.11202H69.6279V10.176H64.9399V19.904C64.9399 20.5867 65.1052 21.0933 65.4359 21.424C65.7665 21.7547 66.1932 21.92 66.7159 21.92C67.0145 21.92 67.2705 21.8827 67.4839 21.808C67.7079 21.7227 67.8999 21.632 68.0599 21.536C68.2199 21.44 68.3532 21.3547 68.4599 21.28C68.5772 21.1947 68.6785 21.152 68.7639 21.152C68.9132 21.152 69.0465 21.2427 69.1639 21.424L69.9959 22.784C69.5052 23.2427 68.9132 23.6053 68.2199 23.872C67.5265 24.128 66.8119 24.256 66.0759 24.256ZM79.3069 7.53601C80.4909 7.53601 81.5575 7.73335 82.5069 8.12802C83.4562 8.52269 84.2669 9.08268 84.9389 9.80801C85.6109 10.5333 86.1229 11.4133 86.4749 12.448C86.8375 13.472 87.0189 14.6187 87.0189 15.888C87.0189 17.168 86.8375 18.32 86.4749 19.344C86.1229 20.368 85.6109 21.2427 84.9389 21.968C84.2669 22.6933 83.4562 23.2533 82.5069 23.648C81.5575 24.032 80.4909 24.224 79.3069 24.224C78.1122 24.224 77.0349 24.032 76.0749 23.648C75.1255 23.2533 74.3149 22.6933 73.6429 21.968C72.9709 21.2427 72.4535 20.368 72.0909 19.344C71.7389 18.32 71.5629 17.168 71.5629 15.888C71.5629 14.6187 71.7389 13.472 72.0909 12.448C72.4535 11.4133 72.9709 10.5333 73.6429 9.80801C74.3149 9.08268 75.1255 8.52269 76.0749 8.12802C77.0349 7.73335 78.1122 7.53601 79.3069 7.53601ZM79.3069 22C80.9069 22 82.1015 21.4667 82.8909 20.4C83.6802 19.3227 84.0749 17.824 84.0749 15.904C84.0749 13.9733 83.6802 12.4693 82.8909 11.392C82.1015 10.3147 80.9069 9.77602 79.3069 9.77602C78.4962 9.77602 77.7869 9.91469 77.1789 10.192C76.5815 10.4693 76.0802 10.8693 75.6749 11.392C75.2802 11.9147 74.9815 12.56 74.7789 13.328C74.5869 14.0853 74.4909 14.944 74.4909 15.904C74.4909 17.824 74.8855 19.3227 75.6749 20.4C76.4749 21.4667 77.6855 22 79.3069 22ZM93.3351 11.04C93.8471 9.93069 94.4764 9.06669 95.2231 8.44802C95.9698 7.81869 96.8818 7.50401 97.9591 7.50401C98.3004 7.50401 98.6258 7.54135 98.9351 7.61602C99.2551 7.69069 99.5378 7.80801 99.7831 7.96801L99.5751 10.096C99.5111 10.3627 99.3511 10.496 99.0951 10.496C98.9458 10.496 98.7271 10.464 98.4391 10.4C98.1511 10.336 97.8258 10.304 97.4631 10.304C96.9511 10.304 96.4924 10.3787 96.0871 10.528C95.6924 10.6773 95.3351 10.9013 95.0151 11.2C94.7058 11.488 94.4231 11.8507 94.1671 12.288C93.9218 12.7147 93.6978 13.2053 93.4951 13.76V24H90.6311V7.79202H92.2631C92.5724 7.79202 92.7858 7.85068 92.9031 7.96801C93.0204 8.08534 93.1004 8.28802 93.1431 8.57602L93.3351 11.04Z" fill="#2A29E6"/>
<path d="M101.807 22.24C101.807 21.9627 101.855 21.7013 101.951 21.456C102.058 21.2107 102.197 20.9973 102.367 20.816C102.549 20.6347 102.762 20.4907 103.007 20.384C103.253 20.2773 103.514 20.224 103.791 20.224C104.069 20.224 104.33 20.2773 104.575 20.384C104.821 20.4907 105.034 20.6347 105.215 20.816C105.397 20.9973 105.541 21.2107 105.647 21.456C105.754 21.7013 105.807 21.9627 105.807 22.24C105.807 22.528 105.754 22.7947 105.647 23.04C105.541 23.2747 105.397 23.4827 105.215 23.664C105.034 23.8453 104.821 23.984 104.575 24.08C104.33 24.1867 104.069 24.24 103.791 24.24C103.514 24.24 103.253 24.1867 103.007 24.08C102.762 23.984 102.549 23.8453 102.367 23.664C102.197 23.4827 102.058 23.2747 101.951 23.04C101.855 22.7947 101.807 22.528 101.807 22.24ZM112.858 7.79201V24H110.01V7.79201H112.858ZM113.466 2.70401C113.466 2.98134 113.407 3.24268 113.29 3.48801C113.183 3.72268 113.034 3.93601 112.842 4.12801C112.66 4.30934 112.442 4.45334 112.186 4.56001C111.94 4.66668 111.679 4.72001 111.402 4.72001C111.124 4.72001 110.863 4.66668 110.618 4.56001C110.383 4.45334 110.175 4.30934 109.994 4.12801C109.812 3.93601 109.668 3.72268 109.562 3.48801C109.455 3.24268 109.402 2.98134 109.402 2.70401C109.402 2.42667 109.455 2.16534 109.562 1.92001C109.668 1.66401 109.812 1.44534 109.994 1.26401C110.175 1.07201 110.383 0.922674 110.618 0.816006C110.863 0.70934 111.124 0.656006 111.402 0.656006C111.679 0.656006 111.94 0.70934 112.186 0.816006C112.442 0.922674 112.66 1.07201 112.842 1.26401C113.034 1.44534 113.183 1.66401 113.29 1.92001C113.407 2.16534 113.466 2.42667 113.466 2.70401ZM120.225 10.144C120.577 9.74934 120.951 9.39201 121.345 9.07201C121.74 8.75201 122.156 8.48001 122.593 8.25601C123.041 8.02134 123.511 7.84534 124.001 7.72801C124.503 7.60001 125.041 7.53601 125.617 7.53601C126.503 7.53601 127.281 7.68534 127.953 7.98401C128.636 8.27201 129.201 8.68801 129.649 9.23201C130.108 9.76534 130.455 10.4107 130.689 11.168C130.924 11.9253 131.041 12.7627 131.041 13.68V24H128.177V13.68C128.177 12.4533 127.895 11.504 127.329 10.832C126.775 10.1493 125.927 9.80801 124.785 9.80801C123.943 9.80801 123.153 10.0107 122.417 10.416C121.692 10.8213 121.02 11.3707 120.401 12.064V24H117.537V7.79201H119.249C119.655 7.79201 119.905 7.98934 120.001 8.38401L120.225 10.144Z" fill="#11093E"/>
</g>
<defs>
<clipPath id="clip0_46_196">
<rect width="132" height="25" fill="white"/>
</clipPath>
</defs>
</svg>
