<svg width="48" height="48" viewBox="0 0 48 48" fill="none" xmlns="http://www.w3.org/2000/svg">
<path d="M25.4 30.6L30.6 25.4C30.9667 25.0333 31.15 24.5667 31.15 24C31.15 23.4333 30.9667 22.9667 30.6 22.6L25.35 17.35C24.9833 16.9833 24.5253 16.808 23.976 16.824C23.4253 16.8413 22.9667 17.0333 22.6 17.4C22.2333 17.7667 22.05 18.2333 22.05 18.8C22.05 19.3667 22.2333 19.8333 22.6 20.2L24.4 22H17.95C17.3833 22 16.9167 22.1913 16.55 22.574C16.1833 22.958 16 23.4333 16 24C16 24.5667 16.192 25.0413 16.576 25.424C16.9587 25.808 17.4333 26 18 26H24.4L22.55 27.85C22.1833 28.2167 22.008 28.6753 22.024 29.226C22.0413 29.7753 22.2333 30.2333 22.6 30.6C22.9667 30.9667 23.4333 31.15 24 31.15C24.5667 31.15 25.0333 30.9667 25.4 30.6V30.6ZM24 44C21.2333 44 18.6333 43.4747 16.2 42.424C13.7667 41.3747 11.65 39.95 9.85 38.15C8.05 36.35 6.62533 34.2333 5.576 31.8C4.52533 29.3667 4 26.7667 4 24C4 21.2333 4.52533 18.6333 5.576 16.2C6.62533 13.7667 8.05 11.65 9.85 9.85C11.65 8.05 13.7667 6.62467 16.2 5.574C18.6333 4.52467 21.2333 4 24 4C26.7667 4 29.3667 4.52467 31.8 5.574C34.2333 6.62467 36.35 8.05 38.15 9.85C39.95 11.65 41.3747 13.7667 42.424 16.2C43.4747 18.6333 44 21.2333 44 24C44 26.7667 43.4747 29.3667 42.424 31.8C41.3747 34.2333 39.95 36.35 38.15 38.15C36.35 39.95 34.2333 41.3747 31.8 42.424C29.3667 43.4747 26.7667 44 24 44Z" fill="#2A29E6"/>
</svg>
