<svg width="132" height="25" viewBox="0 0 132 25" fill="none" xmlns="http://www.w3.org/2000/svg">
<g clip-path="url(#clip0_48_591)">
<path d="M0.255859 24V7.79195H1.96786C2.37319 7.79195 2.62386 7.98928 2.71986 8.38395L2.92786 10.048C3.52519 9.31195 4.19719 8.70928 4.94386 8.23995C5.69053 7.77062 6.55453 7.53595 7.53586 7.53595C8.62386 7.53595 9.50386 7.83995 10.1759 8.44795C10.8586 9.05595 11.3492 9.87728 11.6479 10.912C11.8826 10.3253 12.1812 9.81862 12.5439 9.39195C12.9172 8.96528 13.3332 8.61328 13.7919 8.33595C14.2506 8.05862 14.7359 7.85595 15.2479 7.72795C15.7706 7.59995 16.2986 7.53595 16.8319 7.53595C17.6852 7.53595 18.4426 7.67462 19.1039 7.95195C19.7759 8.21862 20.3412 8.61328 20.7999 9.13595C21.2692 9.65862 21.6266 10.304 21.8719 11.072C22.1172 11.8293 22.2399 12.6987 22.2399 13.68V24H19.3759V13.68C19.3759 12.4107 19.0986 11.4507 18.5439 10.8C17.9892 10.1387 17.1892 9.80795 16.1439 9.80795C15.6746 9.80795 15.2266 9.89328 14.7999 10.064C14.3839 10.224 14.0159 10.464 13.6959 10.784C13.3759 11.104 13.1199 11.5093 12.9279 12C12.7466 12.48 12.6559 13.04 12.6559 13.68V24H9.79186V13.68C9.79186 12.3787 9.53053 11.408 9.00786 10.768C8.48519 10.128 7.72253 9.80795 6.71986 9.80795C6.01586 9.80795 5.36519 9.99995 4.76786 10.384C4.17053 10.7573 3.62119 11.2693 3.11986 11.92V24H0.255859ZM37.4164 14.128C37.4164 13.4667 37.3204 12.864 37.1284 12.32C36.9471 11.7653 36.6751 11.2907 36.3124 10.896C35.9604 10.4907 35.5284 10.1813 35.0164 9.96795C34.5044 9.74395 33.9231 9.63195 33.2724 9.63195C31.9071 9.63195 30.8244 10.032 30.0244 10.832C29.2351 11.6213 28.7444 12.72 28.5524 14.128H37.4164ZM39.7204 21.728C39.3684 22.1547 38.9471 22.528 38.4564 22.848C37.9657 23.1573 37.4377 23.4133 36.8724 23.616C36.3177 23.8187 35.7417 23.968 35.1444 24.064C34.5471 24.1707 33.9551 24.224 33.3684 24.224C32.2484 24.224 31.2137 24.0373 30.2644 23.664C29.3257 23.28 28.5097 22.7253 27.8164 22C27.1337 21.264 26.6004 20.3573 26.2164 19.28C25.8324 18.2027 25.6404 16.9653 25.6404 15.568C25.6404 14.4373 25.8111 13.3813 26.1524 12.4C26.5044 11.4187 27.0057 10.5707 27.6564 9.85595C28.3071 9.13062 29.1017 8.56528 30.0404 8.15995C30.9791 7.74395 32.0351 7.53595 33.2084 7.53595C34.1791 7.53595 35.0751 7.70128 35.8964 8.03195C36.7284 8.35195 37.4431 8.82128 38.0404 9.43995C38.6484 10.048 39.1231 10.8053 39.4644 11.712C39.8057 12.608 39.9764 13.632 39.9764 14.784C39.9764 15.232 39.9284 15.5307 39.8324 15.68C39.7364 15.8293 39.5551 15.904 39.2884 15.904H28.4564C28.4884 16.928 28.6271 17.8187 28.8724 18.576C29.1284 19.3333 29.4804 19.968 29.9284 20.48C30.3764 20.9813 30.9097 21.36 31.5284 21.616C32.1471 21.8613 32.8404 21.984 33.6084 21.984C34.3231 21.984 34.9364 21.904 35.4484 21.744C35.9711 21.5733 36.4191 21.392 36.7924 21.2C37.1657 21.008 37.4751 20.832 37.7204 20.672C37.9764 20.5013 38.1951 20.416 38.3764 20.416C38.6111 20.416 38.7924 20.5067 38.9204 20.688L39.7204 21.728ZM46.1627 10.144C46.5147 9.74928 46.888 9.39195 47.2827 9.07195C47.6773 8.75195 48.0933 8.47995 48.5307 8.25595C48.9787 8.02128 49.448 7.84528 49.9387 7.72795C50.44 7.59995 50.9787 7.53595 51.5547 7.53595C52.44 7.53595 53.2187 7.68528 53.8907 7.98395C54.5733 8.27195 55.1387 8.68795 55.5867 9.23195C56.0453 9.76528 56.392 10.4107 56.6267 11.168C56.8613 11.9253 56.9787 12.7627 56.9787 13.68V24H54.1147V13.68C54.1147 12.4533 53.832 11.504 53.2667 10.832C52.712 10.1493 51.864 9.80795 50.7227 9.80795C49.88 9.80795 49.0907 10.0107 48.3547 10.416C47.6293 10.8213 46.9573 11.3707 46.3387 12.064V24H43.4747V7.79195H45.1867C45.592 7.79195 45.8427 7.98928 45.9387 8.38395L46.1627 10.144ZM66.0757 24.256C64.7957 24.256 63.809 23.8987 63.1157 23.184C62.433 22.4693 62.0917 21.44 62.0917 20.096V10.176H60.1397C59.969 10.176 59.825 10.128 59.7077 10.032C59.5903 9.92528 59.5317 9.76528 59.5317 9.55195V8.41595L62.1877 8.07995L62.8437 3.07195C62.8757 2.91195 62.945 2.78395 63.0517 2.68795C63.169 2.58128 63.3183 2.52795 63.4997 2.52795H64.9397V8.11195H69.6277V10.176H64.9397V19.904C64.9397 20.5867 65.105 21.0933 65.4357 21.424C65.7663 21.7547 66.193 21.92 66.7157 21.92C67.0143 21.92 67.2703 21.8827 67.4837 21.808C67.7077 21.7227 67.8997 21.632 68.0597 21.536C68.2197 21.44 68.353 21.3547 68.4597 21.28C68.577 21.1947 68.6783 21.152 68.7637 21.152C68.913 21.152 69.0463 21.2427 69.1637 21.424L69.9957 22.784C69.505 23.2427 68.913 23.6053 68.2197 23.872C67.5263 24.128 66.8117 24.256 66.0757 24.256ZM79.3067 7.53595C80.4907 7.53595 81.5573 7.73328 82.5067 8.12795C83.456 8.52262 84.2667 9.08262 84.9387 9.80795C85.6107 10.5333 86.1227 11.4133 86.4747 12.448C86.8373 13.472 87.0187 14.6187 87.0187 15.888C87.0187 17.168 86.8373 18.32 86.4747 19.344C86.1227 20.368 85.6107 21.2427 84.9387 21.968C84.2667 22.6933 83.456 23.2533 82.5067 23.648C81.5573 24.032 80.4907 24.224 79.3067 24.224C78.112 24.224 77.0347 24.032 76.0747 23.648C75.1253 23.2533 74.3147 22.6933 73.6427 21.968C72.9707 21.2427 72.4533 20.368 72.0907 19.344C71.7387 18.32 71.5627 17.168 71.5627 15.888C71.5627 14.6187 71.7387 13.472 72.0907 12.448C72.4533 11.4133 72.9707 10.5333 73.6427 9.80795C74.3147 9.08262 75.1253 8.52262 76.0747 8.12795C77.0347 7.73328 78.112 7.53595 79.3067 7.53595ZM79.3067 22C80.9067 22 82.1013 21.4667 82.8907 20.4C83.68 19.3227 84.0747 17.824 84.0747 15.904C84.0747 13.9733 83.68 12.4693 82.8907 11.392C82.1013 10.3147 80.9067 9.77595 79.3067 9.77595C78.496 9.77595 77.7867 9.91462 77.1787 10.192C76.5813 10.4693 76.08 10.8693 75.6747 11.392C75.28 11.9147 74.9813 12.56 74.7787 13.328C74.5867 14.0853 74.4907 14.944 74.4907 15.904C74.4907 17.824 74.8853 19.3227 75.6747 20.4C76.4747 21.4667 77.6853 22 79.3067 22ZM93.3349 11.04C93.8469 9.93062 94.4762 9.06662 95.2229 8.44795C95.9696 7.81862 96.8816 7.50395 97.9589 7.50395C98.3002 7.50395 98.6256 7.54128 98.9349 7.61595C99.2549 7.69062 99.5376 7.80795 99.7829 7.96795L99.5749 10.096C99.5109 10.3627 99.3509 10.496 99.0949 10.496C98.9456 10.496 98.7269 10.464 98.4389 10.4C98.1509 10.336 97.8256 10.304 97.4629 10.304C96.9509 10.304 96.4922 10.3787 96.0869 10.528C95.6922 10.6773 95.3349 10.9013 95.0149 11.2C94.7056 11.488 94.4229 11.8507 94.1669 12.288C93.9216 12.7147 93.6976 13.2053 93.4949 13.76V24H90.6309V7.79195H92.2629C92.5722 7.79195 92.7856 7.85062 92.9029 7.96795C93.0202 8.08528 93.1002 8.28795 93.1429 8.57595L93.3349 11.04Z" fill="#2A29E6"/>
<path d="M101.807 22.24C101.807 21.9627 101.855 21.7013 101.951 21.456C102.058 21.2107 102.197 20.9973 102.367 20.816C102.549 20.6347 102.762 20.4907 103.007 20.384C103.253 20.2773 103.514 20.224 103.791 20.224C104.069 20.224 104.33 20.2773 104.575 20.384C104.821 20.4907 105.034 20.6347 105.215 20.816C105.397 20.9973 105.541 21.2107 105.647 21.456C105.754 21.7013 105.807 21.9627 105.807 22.24C105.807 22.528 105.754 22.7947 105.647 23.04C105.541 23.2747 105.397 23.4827 105.215 23.664C105.034 23.8453 104.821 23.984 104.575 24.08C104.33 24.1867 104.069 24.24 103.791 24.24C103.514 24.24 103.253 24.1867 103.007 24.08C102.762 23.984 102.549 23.8453 102.367 23.664C102.197 23.4827 102.058 23.2747 101.951 23.04C101.855 22.7947 101.807 22.528 101.807 22.24ZM112.858 7.79201V24H110.01V7.79201H112.858ZM113.466 2.70401C113.466 2.98134 113.407 3.24268 113.29 3.48801C113.183 3.72268 113.034 3.93601 112.842 4.12801C112.66 4.30934 112.442 4.45334 112.186 4.56001C111.94 4.66668 111.679 4.72001 111.402 4.72001C111.124 4.72001 110.863 4.66668 110.618 4.56001C110.383 4.45334 110.175 4.30934 109.994 4.12801C109.812 3.93601 109.668 3.72268 109.562 3.48801C109.455 3.24268 109.402 2.98134 109.402 2.70401C109.402 2.42667 109.455 2.16534 109.562 1.92001C109.668 1.66401 109.812 1.44534 109.994 1.26401C110.175 1.07201 110.383 0.922674 110.618 0.816006C110.863 0.70934 111.124 0.656006 111.402 0.656006C111.679 0.656006 111.94 0.70934 112.186 0.816006C112.442 0.922674 112.66 1.07201 112.842 1.26401C113.034 1.44534 113.183 1.66401 113.29 1.92001C113.407 2.16534 113.466 2.42667 113.466 2.70401ZM120.225 10.144C120.577 9.74934 120.951 9.39201 121.345 9.07201C121.74 8.75201 122.156 8.48001 122.593 8.25601C123.041 8.02134 123.511 7.84534 124.001 7.72801C124.503 7.60001 125.041 7.53601 125.617 7.53601C126.503 7.53601 127.281 7.68534 127.953 7.98401C128.636 8.27201 129.201 8.68801 129.649 9.23201C130.108 9.76534 130.455 10.4107 130.689 11.168C130.924 11.9253 131.041 12.7627 131.041 13.68V24H128.177V13.68C128.177 12.4533 127.895 11.504 127.329 10.832C126.775 10.1493 125.927 9.80801 124.785 9.80801C123.943 9.80801 123.153 10.0107 122.417 10.416C121.692 10.8213 121.02 11.3707 120.401 12.064V24H117.537V7.79201H119.249C119.655 7.79201 119.905 7.98934 120.001 8.38401L120.225 10.144Z" fill="#11093E"/>
</g>
<defs>
<clipPath id="clip0_48_591">
<rect width="132" height="25" fill="white"/>
</clipPath>
</defs>
</svg>
