<svg width="22" height="22" viewBox="0 0 22 22" fill="none" xmlns="http://www.w3.org/2000/svg">
<path d="M6.1875 2.75C5.27582 2.75 4.40148 3.11216 3.75682 3.75682C3.11216 4.40148 2.75 5.27582 2.75 6.1875V15.8098C2.75 16.511 2.959 17.1614 3.31925 17.7059L9.34587 11.6793C9.78423 11.241 10.3787 10.9947 10.9986 10.9947C11.6185 10.9947 12.213 11.241 12.6514 11.6793L13.1189 12.1467L15.9899 9.27713C16.4089 8.85738 16.9273 8.55041 17.4968 8.38478C18.0663 8.21914 18.6685 8.20021 19.2473 8.32975V6.1875C19.2473 5.27582 18.8851 4.40148 18.2404 3.75682C17.5958 3.11216 16.7214 2.75 15.8098 2.75H6.1875ZM15.8098 7.56387C15.8156 7.74837 15.7843 7.93217 15.7177 8.10433C15.6511 8.2765 15.5506 8.43353 15.4222 8.5661C15.2937 8.69867 15.1399 8.80408 14.97 8.87607C14.8 8.94805 14.6173 8.98514 14.4327 8.98514C14.2481 8.98514 14.0654 8.94805 13.8954 8.87607C13.7254 8.80408 13.5717 8.69867 13.4432 8.5661C13.3148 8.43353 13.2143 8.2765 13.1477 8.10433C13.0811 7.93217 13.0498 7.74837 13.0556 7.56387C13.0669 7.20619 13.217 6.86693 13.474 6.61791C13.731 6.36889 14.0748 6.22964 14.4327 6.22964C14.7906 6.22964 15.1344 6.36889 15.3914 6.61791C15.6484 6.86693 15.7984 7.20619 15.8098 7.56387V7.56387ZM18.2353 9.63462C17.7534 9.68908 17.3044 9.90583 16.962 10.2492L11.0688 16.1452C10.5796 16.6346 10.2326 17.2477 10.065 17.919L9.647 19.5827C9.61177 19.7233 9.61356 19.8706 9.6522 20.0103C9.69085 20.15 9.76502 20.2773 9.8675 20.3798C9.96998 20.4822 10.0973 20.5564 10.2369 20.595C10.3766 20.6337 10.5239 20.6355 10.6645 20.6003L12.3282 20.1836C12.9995 20.016 13.6127 19.669 14.102 19.1799L19.998 13.2839C20.3132 12.9693 20.5227 12.5644 20.5974 12.1254C20.6721 11.6863 20.6083 11.2349 20.4148 10.8338C20.2214 10.4327 19.9078 10.1017 19.5178 9.88684C19.1277 9.67195 18.6804 9.58381 18.238 9.63462H18.2353ZM12.1481 13.1189L10.0953 15.1718C9.42935 15.8374 8.95692 16.6715 8.7285 17.5849L8.31325 19.2473H6.1875C5.48625 19.2473 4.8345 19.0369 4.29138 18.678L10.318 12.65C10.4074 12.5606 10.5135 12.4897 10.6303 12.4413C10.7471 12.393 10.8722 12.3681 10.9986 12.3681C11.125 12.3681 11.2502 12.393 11.367 12.4413C11.4838 12.4897 11.5899 12.5606 11.6793 12.65L12.1467 13.1175L12.1481 13.1189Z" fill="#2A29E6"/>
</svg>
